<mxfile host="app.diagrams.net" modified="2020-11-30T06:32:18.869Z" agent="5.0 (Windows)" etag="9Hs73MFMKUdjREDHbygA" version="13.7.7" type="github">
  <diagram id="C5RBs43oDa-KdzZeNtuy" name="Page-1">
    <mxGraphModel dx="2492" dy="920" grid="1" gridSize="10" guides="1" tooltips="1" connect="1" arrows="1" fold="1" page="1" pageScale="1" pageWidth="827" pageHeight="1169" math="0" shadow="0">
      <root>
        <mxCell id="WIyWlLk6GJQsqaUBKTNV-0" />
        <mxCell id="WIyWlLk6GJQsqaUBKTNV-1" parent="WIyWlLk6GJQsqaUBKTNV-0" />
        <mxCell id="TS-3d3BhVeNC_QCaQuOQ-4" value="" style="rounded=0;whiteSpace=wrap;html=1;fillColor=none;" vertex="1" parent="WIyWlLk6GJQsqaUBKTNV-1">
          <mxGeometry x="20" y="20" width="790" height="1130" as="geometry" />
        </mxCell>
        <mxCell id="XCpXMh4P8plNV5RskKxT-14" style="edgeStyle=orthogonalEdgeStyle;rounded=0;orthogonalLoop=1;jettySize=auto;html=1;entryX=0.5;entryY=0;entryDx=0;entryDy=0;" parent="WIyWlLk6GJQsqaUBKTNV-1" source="WIyWlLk6GJQsqaUBKTNV-3" target="XCpXMh4P8plNV5RskKxT-1" edge="1">
          <mxGeometry relative="1" as="geometry" />
        </mxCell>
        <mxCell id="WIyWlLk6GJQsqaUBKTNV-3" value="&lt;div&gt;instantiate: &lt;br&gt;&lt;/div&gt;&lt;div&gt;window = tk.Toplevel()&lt;br&gt;&lt;/div&gt;" style="rounded=1;whiteSpace=wrap;html=1;fontSize=12;glass=0;strokeWidth=1;shadow=0;" parent="WIyWlLk6GJQsqaUBKTNV-1" vertex="1">
          <mxGeometry x="115" y="250" width="130" height="50" as="geometry" />
        </mxCell>
        <mxCell id="XCpXMh4P8plNV5RskKxT-13" style="edgeStyle=orthogonalEdgeStyle;rounded=0;orthogonalLoop=1;jettySize=auto;html=1;entryX=0.5;entryY=0;entryDx=0;entryDy=0;" parent="WIyWlLk6GJQsqaUBKTNV-1" source="XCpXMh4P8plNV5RskKxT-0" target="WIyWlLk6GJQsqaUBKTNV-3" edge="1">
          <mxGeometry relative="1" as="geometry" />
        </mxCell>
        <mxCell id="XCpXMh4P8plNV5RskKxT-0" value="start " style="strokeWidth=2;html=1;shape=mxgraph.flowchart.start_1;whiteSpace=wrap;" parent="WIyWlLk6GJQsqaUBKTNV-1" vertex="1">
          <mxGeometry x="110" y="150" width="140" height="60" as="geometry" />
        </mxCell>
        <mxCell id="XCpXMh4P8plNV5RskKxT-15" style="edgeStyle=orthogonalEdgeStyle;rounded=0;orthogonalLoop=1;jettySize=auto;html=1;entryX=0.5;entryY=0;entryDx=0;entryDy=0;" parent="WIyWlLk6GJQsqaUBKTNV-1" source="XCpXMh4P8plNV5RskKxT-1" target="XCpXMh4P8plNV5RskKxT-2" edge="1">
          <mxGeometry relative="1" as="geometry" />
        </mxCell>
        <mxCell id="XCpXMh4P8plNV5RskKxT-1" value="&lt;div&gt;set window size:&lt;/div&gt;&lt;div&gt;window.geometry(500x500)&lt;br&gt;&lt;/div&gt;" style="rounded=1;whiteSpace=wrap;html=1;fontSize=12;glass=0;strokeWidth=1;shadow=0;" parent="WIyWlLk6GJQsqaUBKTNV-1" vertex="1">
          <mxGeometry x="110" y="310" width="140" height="60" as="geometry" />
        </mxCell>
        <mxCell id="XCpXMh4P8plNV5RskKxT-16" style="edgeStyle=orthogonalEdgeStyle;rounded=0;orthogonalLoop=1;jettySize=auto;html=1;entryX=0.5;entryY=0;entryDx=0;entryDy=0;" parent="WIyWlLk6GJQsqaUBKTNV-1" source="XCpXMh4P8plNV5RskKxT-2" target="XCpXMh4P8plNV5RskKxT-7" edge="1">
          <mxGeometry relative="1" as="geometry" />
        </mxCell>
        <mxCell id="XCpXMh4P8plNV5RskKxT-2" value="&lt;div&gt;create label: &quot;Select Feature&quot; &lt;br&gt;&lt;/div&gt;" style="rounded=1;whiteSpace=wrap;html=1;fontSize=12;glass=0;strokeWidth=1;shadow=0;" parent="WIyWlLk6GJQsqaUBKTNV-1" vertex="1">
          <mxGeometry x="110" y="400" width="140" height="60" as="geometry" />
        </mxCell>
        <mxCell id="XCpXMh4P8plNV5RskKxT-18" style="edgeStyle=orthogonalEdgeStyle;rounded=0;orthogonalLoop=1;jettySize=auto;html=1;" parent="WIyWlLk6GJQsqaUBKTNV-1" source="XCpXMh4P8plNV5RskKxT-6" target="XCpXMh4P8plNV5RskKxT-8" edge="1">
          <mxGeometry relative="1" as="geometry" />
        </mxCell>
        <mxCell id="XCpXMh4P8plNV5RskKxT-6" value="Store pre-defined features for user to select in " style="rounded=1;whiteSpace=wrap;html=1;fontSize=12;glass=0;strokeWidth=1;shadow=0;" parent="WIyWlLk6GJQsqaUBKTNV-1" vertex="1">
          <mxGeometry x="110" y="590" width="140" height="60" as="geometry" />
        </mxCell>
        <mxCell id="XCpXMh4P8plNV5RskKxT-17" style="edgeStyle=orthogonalEdgeStyle;rounded=0;orthogonalLoop=1;jettySize=auto;html=1;" parent="WIyWlLk6GJQsqaUBKTNV-1" source="XCpXMh4P8plNV5RskKxT-7" target="XCpXMh4P8plNV5RskKxT-6" edge="1">
          <mxGeometry relative="1" as="geometry" />
        </mxCell>
        <mxCell id="XCpXMh4P8plNV5RskKxT-7" value="create combobox and put on window " style="rounded=1;whiteSpace=wrap;html=1;fontSize=12;glass=0;strokeWidth=1;shadow=0;" parent="WIyWlLk6GJQsqaUBKTNV-1" vertex="1">
          <mxGeometry x="110" y="500" width="140" height="60" as="geometry" />
        </mxCell>
        <mxCell id="XCpXMh4P8plNV5RskKxT-19" style="edgeStyle=orthogonalEdgeStyle;rounded=0;orthogonalLoop=1;jettySize=auto;html=1;" parent="WIyWlLk6GJQsqaUBKTNV-1" source="XCpXMh4P8plNV5RskKxT-8" edge="1">
          <mxGeometry relative="1" as="geometry">
            <mxPoint x="180" y="790" as="targetPoint" />
          </mxGeometry>
        </mxCell>
        <mxCell id="XCpXMh4P8plNV5RskKxT-8" value="Set &quot;See Options&quot; as first selection on drop down list " style="rounded=1;whiteSpace=wrap;html=1;fontSize=12;glass=0;strokeWidth=1;shadow=0;" parent="WIyWlLk6GJQsqaUBKTNV-1" vertex="1">
          <mxGeometry x="110" y="685" width="140" height="60" as="geometry" />
        </mxCell>
        <mxCell id="XCpXMh4P8plNV5RskKxT-20" style="edgeStyle=orthogonalEdgeStyle;rounded=0;orthogonalLoop=1;jettySize=auto;html=1;entryX=0.5;entryY=0;entryDx=0;entryDy=0;" parent="WIyWlLk6GJQsqaUBKTNV-1" source="XCpXMh4P8plNV5RskKxT-9" target="XCpXMh4P8plNV5RskKxT-10" edge="1">
          <mxGeometry relative="1" as="geometry" />
        </mxCell>
        <mxCell id="XCpXMh4P8plNV5RskKxT-9" value="Binds selected feature with comboclick function" style="rounded=1;whiteSpace=wrap;html=1;fontSize=12;glass=0;strokeWidth=1;shadow=0;" parent="WIyWlLk6GJQsqaUBKTNV-1" vertex="1">
          <mxGeometry x="110" y="790" width="140" height="60" as="geometry" />
        </mxCell>
        <mxCell id="XCpXMh4P8plNV5RskKxT-21" style="edgeStyle=orthogonalEdgeStyle;rounded=0;orthogonalLoop=1;jettySize=auto;html=1;entryX=0.5;entryY=0;entryDx=0;entryDy=0;" parent="WIyWlLk6GJQsqaUBKTNV-1" source="XCpXMh4P8plNV5RskKxT-10" target="XCpXMh4P8plNV5RskKxT-11" edge="1">
          <mxGeometry relative="1" as="geometry" />
        </mxCell>
        <mxCell id="XCpXMh4P8plNV5RskKxT-10" value="Binds selected feature with comboclick function" style="rounded=1;whiteSpace=wrap;html=1;fontSize=12;glass=0;strokeWidth=1;shadow=0;" parent="WIyWlLk6GJQsqaUBKTNV-1" vertex="1">
          <mxGeometry x="110" y="890" width="140" height="60" as="geometry" />
        </mxCell>
        <mxCell id="XCpXMh4P8plNV5RskKxT-11" value="Put combobox on grid " style="rounded=1;whiteSpace=wrap;html=1;fontSize=12;glass=0;strokeWidth=1;shadow=0;" parent="WIyWlLk6GJQsqaUBKTNV-1" vertex="1">
          <mxGeometry x="110" y="980" width="140" height="60" as="geometry" />
        </mxCell>
        <mxCell id="XCpXMh4P8plNV5RskKxT-22" value="" style="endArrow=none;dashed=1;html=1;exitX=1;exitY=0.5;exitDx=0;exitDy=0;" parent="WIyWlLk6GJQsqaUBKTNV-1" source="XCpXMh4P8plNV5RskKxT-10" edge="1">
          <mxGeometry width="50" height="50" relative="1" as="geometry">
            <mxPoint x="360" y="950" as="sourcePoint" />
            <mxPoint x="450" y="210" as="targetPoint" />
          </mxGeometry>
        </mxCell>
        <mxCell id="XCpXMh4P8plNV5RskKxT-50" style="edgeStyle=orthogonalEdgeStyle;rounded=0;orthogonalLoop=1;jettySize=auto;html=1;entryX=0.5;entryY=0;entryDx=0;entryDy=0;entryPerimeter=0;" parent="WIyWlLk6GJQsqaUBKTNV-1" source="XCpXMh4P8plNV5RskKxT-23" target="XCpXMh4P8plNV5RskKxT-24" edge="1">
          <mxGeometry relative="1" as="geometry" />
        </mxCell>
        <mxCell id="XCpXMh4P8plNV5RskKxT-23" value="&amp;nbsp;comboclick(event)" style="strokeWidth=2;html=1;shape=mxgraph.flowchart.start_1;whiteSpace=wrap;" parent="WIyWlLk6GJQsqaUBKTNV-1" vertex="1">
          <mxGeometry x="450" y="170" width="140" height="60" as="geometry" />
        </mxCell>
        <mxCell id="XCpXMh4P8plNV5RskKxT-36" style="edgeStyle=orthogonalEdgeStyle;rounded=0;orthogonalLoop=1;jettySize=auto;html=1;entryX=0.5;entryY=0;entryDx=0;entryDy=0;" parent="WIyWlLk6GJQsqaUBKTNV-1" source="XCpXMh4P8plNV5RskKxT-24" target="XCpXMh4P8plNV5RskKxT-29" edge="1">
          <mxGeometry relative="1" as="geometry" />
        </mxCell>
        <mxCell id="XCpXMh4P8plNV5RskKxT-55" style="edgeStyle=orthogonalEdgeStyle;rounded=0;orthogonalLoop=1;jettySize=auto;html=1;entryX=0;entryY=0.5;entryDx=0;entryDy=0;entryPerimeter=0;" parent="WIyWlLk6GJQsqaUBKTNV-1" source="XCpXMh4P8plNV5RskKxT-24" target="XCpXMh4P8plNV5RskKxT-51" edge="1">
          <mxGeometry relative="1" as="geometry" />
        </mxCell>
        <mxCell id="XCpXMh4P8plNV5RskKxT-24" value="&lt;div&gt;if df type of&lt;br&gt;&lt;/div&gt;&lt;div&gt;selected feature == &lt;br&gt;&lt;/div&gt;&lt;div&gt;integer or float &lt;/div&gt;" style="strokeWidth=2;html=1;shape=mxgraph.flowchart.decision;whiteSpace=wrap;" parent="WIyWlLk6GJQsqaUBKTNV-1" vertex="1">
          <mxGeometry x="460" y="270" width="120" height="110" as="geometry" />
        </mxCell>
        <mxCell id="XCpXMh4P8plNV5RskKxT-27" value="true" style="text;html=1;strokeColor=none;fillColor=none;align=center;verticalAlign=middle;whiteSpace=wrap;rounded=0;" parent="WIyWlLk6GJQsqaUBKTNV-1" vertex="1">
          <mxGeometry x="520" y="380" width="40" height="20" as="geometry" />
        </mxCell>
        <mxCell id="XCpXMh4P8plNV5RskKxT-41" style="edgeStyle=orthogonalEdgeStyle;rounded=0;orthogonalLoop=1;jettySize=auto;html=1;entryX=0.5;entryY=0;entryDx=0;entryDy=0;" parent="WIyWlLk6GJQsqaUBKTNV-1" source="XCpXMh4P8plNV5RskKxT-29" target="XCpXMh4P8plNV5RskKxT-33" edge="1">
          <mxGeometry relative="1" as="geometry" />
        </mxCell>
        <mxCell id="XCpXMh4P8plNV5RskKxT-29" value="set feature_min_max = to min and max of selected feature" style="rounded=1;whiteSpace=wrap;html=1;absoluteArcSize=1;arcSize=14;strokeWidth=2;" parent="WIyWlLk6GJQsqaUBKTNV-1" vertex="1">
          <mxGeometry x="455" y="420" width="130" height="70" as="geometry" />
        </mxCell>
        <mxCell id="XCpXMh4P8plNV5RskKxT-42" style="edgeStyle=orthogonalEdgeStyle;rounded=0;orthogonalLoop=1;jettySize=auto;html=1;entryX=0.5;entryY=0;entryDx=0;entryDy=0;" parent="WIyWlLk6GJQsqaUBKTNV-1" source="XCpXMh4P8plNV5RskKxT-33" target="XCpXMh4P8plNV5RskKxT-34" edge="1">
          <mxGeometry relative="1" as="geometry" />
        </mxCell>
        <mxCell id="XCpXMh4P8plNV5RskKxT-33" value="Create label, put on window, and set text parameter = feature_min_max" style="rounded=1;whiteSpace=wrap;html=1;absoluteArcSize=1;arcSize=14;strokeWidth=2;" parent="WIyWlLk6GJQsqaUBKTNV-1" vertex="1">
          <mxGeometry x="455" y="520" width="130" height="70" as="geometry" />
        </mxCell>
        <mxCell id="XCpXMh4P8plNV5RskKxT-43" style="edgeStyle=orthogonalEdgeStyle;rounded=0;orthogonalLoop=1;jettySize=auto;html=1;entryX=0.5;entryY=0;entryDx=0;entryDy=0;" parent="WIyWlLk6GJQsqaUBKTNV-1" source="XCpXMh4P8plNV5RskKxT-34" target="XCpXMh4P8plNV5RskKxT-39" edge="1">
          <mxGeometry relative="1" as="geometry" />
        </mxCell>
        <mxCell id="XCpXMh4P8plNV5RskKxT-34" value="set feature_min_max = to min and max of selected feature" style="rounded=1;whiteSpace=wrap;html=1;absoluteArcSize=1;arcSize=14;strokeWidth=2;" parent="WIyWlLk6GJQsqaUBKTNV-1" vertex="1">
          <mxGeometry x="455" y="620" width="130" height="70" as="geometry" />
        </mxCell>
        <mxCell id="XCpXMh4P8plNV5RskKxT-45" style="edgeStyle=orthogonalEdgeStyle;rounded=0;orthogonalLoop=1;jettySize=auto;html=1;entryX=0.5;entryY=0;entryDx=0;entryDy=0;" parent="WIyWlLk6GJQsqaUBKTNV-1" source="XCpXMh4P8plNV5RskKxT-39" target="XCpXMh4P8plNV5RskKxT-40" edge="1">
          <mxGeometry relative="1" as="geometry" />
        </mxCell>
        <mxCell id="XCpXMh4P8plNV5RskKxT-39" value="put label on grid of window" style="rounded=1;whiteSpace=wrap;html=1;absoluteArcSize=1;arcSize=14;strokeWidth=2;" parent="WIyWlLk6GJQsqaUBKTNV-1" vertex="1">
          <mxGeometry x="455" y="720" width="130" height="70" as="geometry" />
        </mxCell>
        <mxCell id="XCpXMh4P8plNV5RskKxT-40" value="destroy label after 4 seconds" style="rounded=1;whiteSpace=wrap;html=1;absoluteArcSize=1;arcSize=14;strokeWidth=2;" parent="WIyWlLk6GJQsqaUBKTNV-1" vertex="1">
          <mxGeometry x="455" y="830" width="130" height="70" as="geometry" />
        </mxCell>
        <mxCell id="XCpXMh4P8plNV5RskKxT-58" style="edgeStyle=orthogonalEdgeStyle;rounded=0;orthogonalLoop=1;jettySize=auto;html=1;entryX=0.462;entryY=0;entryDx=0;entryDy=0;entryPerimeter=0;" parent="WIyWlLk6GJQsqaUBKTNV-1" source="XCpXMh4P8plNV5RskKxT-51" edge="1" target="XCpXMh4P8plNV5RskKxT-56">
          <mxGeometry relative="1" as="geometry">
            <mxPoint x="690" y="410" as="targetPoint" />
          </mxGeometry>
        </mxCell>
        <mxCell id="XCpXMh4P8plNV5RskKxT-51" value="&lt;div&gt;elif&lt;/div&gt;&lt;div&gt; df type of selected feature== object&lt;br&gt;&lt;/div&gt;" style="strokeWidth=2;html=1;shape=mxgraph.flowchart.decision;whiteSpace=wrap;" parent="WIyWlLk6GJQsqaUBKTNV-1" vertex="1">
          <mxGeometry x="630" y="272.5" width="120" height="105" as="geometry" />
        </mxCell>
        <mxCell id="XCpXMh4P8plNV5RskKxT-60" style="edgeStyle=orthogonalEdgeStyle;rounded=0;orthogonalLoop=1;jettySize=auto;html=1;" parent="WIyWlLk6GJQsqaUBKTNV-1" source="XCpXMh4P8plNV5RskKxT-56" target="XCpXMh4P8plNV5RskKxT-59" edge="1">
          <mxGeometry relative="1" as="geometry" />
        </mxCell>
        <mxCell id="XCpXMh4P8plNV5RskKxT-56" value="set feature freq to be the counts of the selected feature&amp;nbsp; " style="rounded=1;whiteSpace=wrap;html=1;absoluteArcSize=1;arcSize=14;strokeWidth=2;" parent="WIyWlLk6GJQsqaUBKTNV-1" vertex="1">
          <mxGeometry x="630" y="420" width="130" height="70" as="geometry" />
        </mxCell>
        <mxCell id="XCpXMh4P8plNV5RskKxT-64" style="edgeStyle=orthogonalEdgeStyle;rounded=0;orthogonalLoop=1;jettySize=auto;html=1;" parent="WIyWlLk6GJQsqaUBKTNV-1" source="XCpXMh4P8plNV5RskKxT-59" edge="1">
          <mxGeometry relative="1" as="geometry">
            <mxPoint x="695" y="640" as="targetPoint" />
          </mxGeometry>
        </mxCell>
        <mxCell id="XCpXMh4P8plNV5RskKxT-59" value="set feature freq to be the selected feature counts&amp;nbsp; " style="rounded=1;whiteSpace=wrap;html=1;absoluteArcSize=1;arcSize=14;strokeWidth=2;" parent="WIyWlLk6GJQsqaUBKTNV-1" vertex="1">
          <mxGeometry x="630" y="530" width="130" height="70" as="geometry" />
        </mxCell>
        <mxCell id="XCpXMh4P8plNV5RskKxT-66" style="edgeStyle=orthogonalEdgeStyle;rounded=0;orthogonalLoop=1;jettySize=auto;html=1;entryX=0.5;entryY=0;entryDx=0;entryDy=0;" parent="WIyWlLk6GJQsqaUBKTNV-1" source="XCpXMh4P8plNV5RskKxT-63" target="XCpXMh4P8plNV5RskKxT-65" edge="1">
          <mxGeometry relative="1" as="geometry" />
        </mxCell>
        <mxCell id="XCpXMh4P8plNV5RskKxT-63" value="create label, with text parameter = feature_freq" style="rounded=1;whiteSpace=wrap;html=1;absoluteArcSize=1;arcSize=53;strokeWidth=2;" parent="WIyWlLk6GJQsqaUBKTNV-1" vertex="1">
          <mxGeometry x="630" y="644.5" width="130" height="70" as="geometry" />
        </mxCell>
        <mxCell id="XCpXMh4P8plNV5RskKxT-68" style="edgeStyle=orthogonalEdgeStyle;rounded=0;orthogonalLoop=1;jettySize=auto;html=1;entryX=0.5;entryY=0;entryDx=0;entryDy=0;" parent="WIyWlLk6GJQsqaUBKTNV-1" source="XCpXMh4P8plNV5RskKxT-65" target="XCpXMh4P8plNV5RskKxT-67" edge="1">
          <mxGeometry relative="1" as="geometry" />
        </mxCell>
        <mxCell id="XCpXMh4P8plNV5RskKxT-65" value="put label on window grid&amp;nbsp; " style="rounded=1;whiteSpace=wrap;html=1;absoluteArcSize=1;arcSize=14;strokeWidth=2;" parent="WIyWlLk6GJQsqaUBKTNV-1" vertex="1">
          <mxGeometry x="630" y="760" width="130" height="70" as="geometry" />
        </mxCell>
        <mxCell id="XCpXMh4P8plNV5RskKxT-70" style="edgeStyle=orthogonalEdgeStyle;rounded=0;orthogonalLoop=1;jettySize=auto;html=1;entryX=0.5;entryY=0;entryDx=0;entryDy=0;" parent="WIyWlLk6GJQsqaUBKTNV-1" source="XCpXMh4P8plNV5RskKxT-67" target="XCpXMh4P8plNV5RskKxT-69" edge="1">
          <mxGeometry relative="1" as="geometry" />
        </mxCell>
        <mxCell id="XCpXMh4P8plNV5RskKxT-67" value="put label on window grid&amp;nbsp; " style="rounded=1;whiteSpace=wrap;html=1;absoluteArcSize=1;arcSize=14;strokeWidth=2;" parent="WIyWlLk6GJQsqaUBKTNV-1" vertex="1">
          <mxGeometry x="630" y="870" width="130" height="70" as="geometry" />
        </mxCell>
        <mxCell id="XCpXMh4P8plNV5RskKxT-69" value="destroy label after 4 seconds" style="rounded=1;whiteSpace=wrap;html=1;absoluteArcSize=1;arcSize=14;strokeWidth=2;" parent="WIyWlLk6GJQsqaUBKTNV-1" vertex="1">
          <mxGeometry x="630" y="980" width="130" height="70" as="geometry" />
        </mxCell>
        <mxCell id="TS-3d3BhVeNC_QCaQuOQ-0" value="&lt;h1&gt;Feature Count Tool and child function comboclick &lt;br&gt;&lt;/h1&gt;&lt;p&gt;Lorem ipsum dolor sit amet, consectetur adipisicing elit, sed do eiusmod tempor incididunt ut labore et dolore magna aliqua.&lt;/p&gt;" style="text;html=1;strokeColor=none;fillColor=none;spacing=5;spacingTop=-20;whiteSpace=wrap;overflow=hidden;rounded=0;" vertex="1" parent="WIyWlLk6GJQsqaUBKTNV-1">
          <mxGeometry x="620" y="40" width="190" height="120" as="geometry" />
        </mxCell>
        <mxCell id="TS-3d3BhVeNC_QCaQuOQ-2" value="true" style="text;html=1;strokeColor=none;fillColor=none;align=center;verticalAlign=middle;whiteSpace=wrap;rounded=0;" vertex="1" parent="WIyWlLk6GJQsqaUBKTNV-1">
          <mxGeometry x="695" y="380" width="40" height="20" as="geometry" />
        </mxCell>
      </root>
    </mxGraphModel>
  </diagram>
</mxfile>
